<svg width="24" height="20" viewBox="0 0 24 20" fill="none" xmlns="http://www.w3.org/2000/svg">
<path fill-rule="evenodd" clip-rule="evenodd" d="M0.892555 0.0482484C0.330839 0.18391 0 0.641485 0 1.28263C0 2.00644 0.405648 2.46605 1.12021 2.5517C1.32515 2.57624 6.36189 2.58662 12.313 2.57464C22.9844 2.55315 23.1365 2.5509 23.3764 2.40769C24.2046 1.91354 24.2087 0.652372 23.3837 0.161481C23.1341 0.0129719 23.0906 0.0123187 12.1338 0.00106806C6.08422 -0.00510165 1.02562 0.0160933 0.892555 0.0482484ZM0.789441 8.79088C0.252446 8.98599 0.000931612 9.372 0.00035836 10.0017C-0.00028655 10.7158 0.409159 11.1767 1.12021 11.2619C1.32515 11.2864 6.36189 11.2968 12.313 11.2848C22.9844 11.2633 23.1365 11.2611 23.3764 11.1179C24.2046 10.6237 24.2087 9.36256 23.3837 8.87167C23.1342 8.72324 23.087 8.72251 12.098 8.70705C2.90976 8.69406 1.01709 8.70814 0.789441 8.79088ZM0.892555 17.4686C0.330839 17.6043 0 18.0619 0 18.703C0 19.4268 0.405648 19.8864 1.12021 19.9721C1.32515 19.9966 6.36189 20.007 12.313 19.995C22.9844 19.9735 23.1365 19.9713 23.3764 19.8281C24.2046 19.3339 24.2087 18.0728 23.3837 17.5819C23.1341 17.4334 23.0906 17.4327 12.1338 17.4214C6.08422 17.4153 1.02562 17.4365 0.892555 17.4686Z" fill="#222222"/>
</svg>
