<svg width="16" height="16" viewBox="0 0 16 16" fill="none" xmlns="http://www.w3.org/2000/svg">
<path d="M14.8 6.95861H9.521L9.494 6.88987C9.36769 6.57222 9.15902 6.30177 8.89368 6.11179C8.62833 5.92182 8.31788 5.82061 8.0005 5.82061C7.68313 5.82061 7.37267 5.92182 7.10733 6.11179C6.84198 6.30177 6.63332 6.57222 6.507 6.88987L6.48 6.95861H1.2V4.98602C1.19946 4.75314 1.28319 4.52944 1.433 4.36354C1.5828 4.19765 1.78657 4.10298 2 4.1001H14C14.2145 4.10097 14.4199 4.19461 14.5712 4.36048C14.7225 4.52636 14.8073 4.75093 14.807 4.98493L14.8 6.95861ZM7.172 7.61323C7.17299 7.43532 7.22222 7.26171 7.31349 7.11427C7.40477 6.96684 7.53399 6.85218 7.68489 6.78474C7.83579 6.71731 8.00161 6.70011 8.16146 6.73532C8.3213 6.77053 8.46801 6.85657 8.58311 6.9826C8.69821 7.10863 8.77654 7.26901 8.80824 7.44353C8.83993 7.61805 8.82357 7.7989 8.76121 7.9633C8.69886 8.12769 8.5933 8.26826 8.45783 8.36731C8.32237 8.46636 8.16307 8.51944 8 8.51988C7.78058 8.51901 7.57044 8.42315 7.41575 8.25336C7.26106 8.08356 7.17447 7.85372 7.175 7.61432L7.172 7.61323ZM14.8 13.8016C14.8003 14.0356 14.7155 14.2601 14.5642 14.426C14.4129 14.5919 14.2075 14.6855 13.993 14.6864H2C1.78674 14.6835 1.58312 14.589 1.43335 14.4233C1.28357 14.2577 1.19972 14.0343 1.2 13.8016V8.27112H6.479L6.507 8.33986C6.63332 8.65752 6.84198 8.92797 7.10733 9.11794C7.37267 9.30791 7.68313 9.40912 8.0005 9.40912C8.31788 9.40912 8.62833 9.30791 8.89368 9.11794C9.15902 8.92797 9.36769 8.65752 9.494 8.33986L9.522 8.27112H14.8V13.8016ZM5.677 2.19843C5.67634 2.0821 5.69674 1.96678 5.73703 1.85907C5.77732 1.75136 5.8367 1.65339 5.91177 1.57078C5.98683 1.48817 6.07612 1.42254 6.17448 1.37766C6.27285 1.33277 6.37838 1.30952 6.485 1.30924H9.515C9.72948 1.31011 9.93489 1.40375 10.0862 1.56962C10.2375 1.7355 10.3223 1.96006 10.322 2.19407V2.78323H5.677V2.19843ZM14 2.78759H11.52V2.19843C11.5211 1.61691 11.3105 1.05871 10.9345 0.646482C10.5586 0.234258 10.048 0.00173388 9.515 0L6.485 0C5.95287 0.00317459 5.44358 0.236334 5.0687 0.648402C4.69383 1.06047 4.48394 1.61785 4.485 2.19843V2.78759H2C1.46795 2.79105 0.958813 3.0243 0.583996 3.43631C0.209179 3.84831 -0.000800501 4.40552 2.29349e-06 4.98602L2.29349e-06 13.8016C-0.000800501 14.3821 0.209179 14.9393 0.583996 15.3513C0.958813 15.7633 1.46795 15.9965 2 16H14C14.5321 15.9965 15.0412 15.7633 15.416 15.3513C15.7908 14.9393 16.0008 14.3821 16 13.8016V4.98602C16.0008 4.40552 15.7908 3.84831 15.416 3.43631C15.0412 3.0243 14.5321 2.79105 14 2.78759Z" fill="black"/>
</svg>
