<svg width="16" height="17" viewBox="0 0 16 17" fill="none" xmlns="http://www.w3.org/2000/svg">
<path d="M14.8 7.45861H9.521L9.494 7.38987C9.36769 7.07222 9.15902 6.80177 8.89368 6.61179C8.62833 6.42182 8.31788 6.32061 8.0005 6.32061C7.68313 6.32061 7.37267 6.42182 7.10733 6.61179C6.84198 6.80177 6.63332 7.07222 6.507 7.38987L6.48 7.45861H1.2V5.48602C1.19946 5.25314 1.28319 5.02944 1.433 4.86354C1.5828 4.69765 1.78657 4.60298 2 4.6001H14C14.2145 4.60097 14.4199 4.69461 14.5712 4.86048C14.7225 5.02636 14.8073 5.25093 14.807 5.48493L14.8 7.45861ZM7.172 8.11323C7.17299 7.93532 7.22222 7.76171 7.31349 7.61427C7.40477 7.46684 7.53399 7.35218 7.68489 7.28474C7.83579 7.21731 8.00161 7.20011 8.16146 7.23532C8.3213 7.27053 8.46801 7.35657 8.58311 7.4826C8.69821 7.60863 8.77654 7.76901 8.80824 7.94353C8.83993 8.11805 8.82357 8.2989 8.76121 8.4633C8.69886 8.62769 8.5933 8.76826 8.45783 8.86731C8.32237 8.96636 8.16307 9.01944 8 9.01988C7.78058 9.01901 7.57044 8.92315 7.41575 8.75336C7.26106 8.58356 7.17447 8.35372 7.175 8.11432L7.172 8.11323ZM14.8 14.3016C14.8003 14.5356 14.7155 14.7601 14.5642 14.926C14.4129 15.0919 14.2075 15.1855 13.993 15.1864H2C1.78674 15.1835 1.58312 15.089 1.43335 14.9233C1.28357 14.7577 1.19972 14.5343 1.2 14.3016V8.77112H6.479L6.507 8.83986C6.63332 9.15752 6.84198 9.42797 7.10733 9.61794C7.37267 9.80791 7.68313 9.90912 8.0005 9.90912C8.31788 9.90912 8.62833 9.80791 8.89368 9.61794C9.15902 9.42797 9.36769 9.15752 9.494 8.83986L9.522 8.77112H14.8V14.3016ZM5.677 2.69843C5.67634 2.5821 5.69674 2.46678 5.73703 2.35907C5.77732 2.25136 5.8367 2.15339 5.91177 2.07078C5.98683 1.98817 6.07612 1.92254 6.17448 1.87766C6.27285 1.83277 6.37838 1.80952 6.485 1.80924H9.515C9.72948 1.81011 9.93489 1.90375 10.0862 2.06962C10.2375 2.2355 10.3223 2.46006 10.322 2.69407V3.28323H5.677V2.69843ZM14 3.28759H11.52V2.69843C11.5211 2.11691 11.3105 1.55871 10.9345 1.14648C10.5586 0.734258 10.048 0.501734 9.515 0.5L6.485 0.5C5.95287 0.503175 5.44358 0.736334 5.0687 1.1484C4.69383 1.56047 4.48394 2.11785 4.485 2.69843V3.28759H2C1.46795 3.29105 0.958813 3.5243 0.583996 3.93631C0.209179 4.34831 -0.000800501 4.90552 2.29349e-06 5.48602L2.29349e-06 14.3016C-0.000800501 14.8821 0.209179 15.4393 0.583996 15.8513C0.958813 16.2633 1.46795 16.4965 2 16.5H14C14.5321 16.4965 15.0412 16.2633 15.416 15.8513C15.7908 15.4393 16.0008 14.8821 16 14.3016V5.48602C16.0008 4.90552 15.7908 4.34831 15.416 3.93631C15.0412 3.5243 14.5321 3.29105 14 3.28759Z" fill="white"/>
</svg>
