<svg width="99" height="10" viewBox="0 0 99 10" fill="none" xmlns="http://www.w3.org/2000/svg">
<path d="M13.5145 1.79184V0.00742853H2.53576C0.849971 0.00742853 0 0.878206 0 2.29143V7.716C0 9.12922 0.849971 10 2.53576 10H13.5145V8.21565H1.91244V1.79184H13.5145ZM20.8384 4.09011V0.00742853H18.9685V10H20.8384V5.84592H30.8256V10H32.6955V0.00742853H30.8256V4.09011H20.8384ZM50.8566 0.00742853V8.21565H41.0111V0.00742853H39.1412V7.716C39.1412 9.12922 39.9911 10 41.6769 10H50.1908C51.8766 10 52.7265 9.12922 52.7265 7.716V0.00742853H50.8566ZM70.6745 10C72.516 10 73.366 9.22915 73.366 7.90159V6.73102C73.366 6.35984 73.2385 6.18858 72.9694 5.96012L71.7794 4.93235L72.9694 3.90452C73.2385 3.67611 73.366 3.50479 73.366 3.13367V2.10589C73.366 0.778267 72.516 0.00742853 70.6745 0.00742853H59.1715V10H70.6745ZM61.0414 1.70617H71.4536V4.13291H61.0414V1.70617ZM71.4536 8.30126H61.0414V5.80312H71.4536V8.30126ZM90.7904 10C92.632 10 93.482 9.22915 93.482 7.90159V6.73102C93.482 6.35984 93.3545 6.18858 93.0853 5.96012L91.8953 4.93235L93.0853 3.90452C93.3545 3.67611 93.482 3.50479 93.482 3.13367V2.10589C93.482 0.778267 92.632 0.00742853 90.7904 0.00742853H79.2875V10H90.7904ZM81.1574 1.70617H91.5695V4.13291H81.1574V1.70617ZM91.5695 8.30126H81.1574V5.80312H91.5695V8.30126Z" fill="black"/>
<path d="M96.9021 1.27966C96.9591 1.276 97.0093 1.26566 97.0529 1.24852C97.0966 1.23144 97.1316 1.20402 97.1583 1.1661C97.185 1.12834 97.1983 1.0764 97.1983 1.01053C97.1983 0.954409 97.1881 0.909273 97.1673 0.875001C97.1469 0.840946 97.1191 0.813477 97.0838 0.792634C97.0488 0.77194 97.0093 0.757832 96.9657 0.750514C96.9222 0.743195 96.876 0.739596 96.8276 0.739596H96.4751V1.28517H96.7297C96.7877 1.28517 96.8453 1.28332 96.9021 1.27966ZM96.2826 2.14932V0.574794H96.8822C97.059 0.574794 97.1881 0.612026 97.2692 0.68649C97.3505 0.760969 97.3909 0.869013 97.3909 1.01053C97.3909 1.0789 97.3806 1.13867 97.36 1.18997C97.3394 1.2412 97.311 1.28458 97.2747 1.31997C97.2383 1.35534 97.1964 1.38341 97.1493 1.40414C97.1021 1.42493 97.0517 1.44015 96.9984 1.44986L97.4635 2.14932H97.2383L96.7987 1.44986H96.4751V2.14932H96.2826ZM96.3171 0.285503C96.1779 0.346552 96.0574 0.429571 95.9555 0.534533C95.8538 0.639455 95.7744 0.762775 95.7177 0.904291C95.6606 1.0459 95.6323 1.19855 95.6323 1.36208C95.6323 1.52566 95.6606 1.67821 95.7177 1.81977C95.7744 1.96139 95.8538 2.08466 95.9555 2.18963C96.0574 2.2946 96.1779 2.37756 96.3171 2.43861C96.4564 2.49966 96.6084 2.53016 96.7732 2.53016C96.9356 2.53016 97.0862 2.49966 97.2257 2.43861C97.3649 2.37756 97.4853 2.2946 97.5871 2.18963C97.6889 2.08466 97.7688 1.96139 97.8269 1.81977C97.8851 1.67821 97.9141 1.52566 97.9141 1.36208C97.9141 1.19855 97.8851 1.0459 97.8269 0.904291C97.7688 0.762775 97.6889 0.639455 97.5871 0.534533C97.4853 0.429571 97.3649 0.346552 97.2257 0.285503C97.0862 0.224508 96.9356 0.194011 96.7732 0.194011C96.6084 0.194011 96.4564 0.224508 96.3171 0.285503V0.285503ZM97.3073 0.104311C97.472 0.17386 97.615 0.270282 97.7361 0.393548C97.8572 0.516868 97.9524 0.66152 98.0215 0.827422C98.0905 0.993501 98.125 1.17161 98.125 1.36208C98.125 1.55493 98.0905 1.73373 98.0215 1.89843C97.9524 2.06323 97.8572 2.20666 97.7361 2.32876C97.615 2.45086 97.472 2.5466 97.3073 2.61614C97.1427 2.68573 96.9645 2.72046 96.7732 2.72046C96.5818 2.72046 96.4037 2.68573 96.239 2.61614C96.0742 2.5466 95.9314 2.45086 95.8103 2.32876C95.6891 2.20666 95.5941 2.06323 95.5249 1.89843C95.4559 1.73373 95.4214 1.55493 95.4214 1.36208C95.4214 1.17161 95.4559 0.993501 95.5249 0.827422C95.5941 0.66152 95.6891 0.516868 95.8103 0.393548C95.9314 0.270282 96.0742 0.17386 96.239 0.104311C96.4037 0.0347212 96.5818 -6.62759e-05 96.7732 -6.62759e-05C96.9645 -6.62759e-05 97.1427 0.0347212 97.3073 0.104311Z" fill="black"/>
</svg>
