<svg width="24" height="24" viewBox="0 0 24 24" fill="none" xmlns="http://www.w3.org/2000/svg">
<rect width="24" height="24" fill="#4B4E53"/>
<path d="M11.995 6.905C13.645 6.905 13.87 6.905 14.545 6.905C15.145 6.905 15.445 7.055 15.67 7.13C15.97 7.28 16.195 7.355 16.42 7.58C16.645 7.805 16.795 8.03 16.87 8.33C16.945 8.555 17.02 8.855 17.095 9.455C17.095 10.13 17.095 10.28 17.095 12.005C17.095 13.73 17.095 13.88 17.095 14.555C17.095 15.155 16.945 15.455 16.87 15.68C16.72 15.98 16.645 16.205 16.42 16.43C16.195 16.655 15.97 16.805 15.67 16.88C15.445 16.955 15.145 17.03 14.545 17.105C13.87 17.105 13.72 17.105 11.995 17.105C10.27 17.105 10.12 17.105 9.44502 17.105C8.84502 17.105 8.54502 16.955 8.32002 16.88C8.02002 16.73 7.79502 16.655 7.57002 16.43C7.34502 16.205 7.19502 15.98 7.12002 15.68C7.04502 15.455 6.97002 15.155 6.89502 14.555C6.89502 13.88 6.89502 13.73 6.89502 12.005C6.89502 10.28 6.89502 10.13 6.89502 9.455C6.89502 8.855 7.04502 8.555 7.12002 8.33C7.27002 8.03 7.34502 7.805 7.57002 7.58C7.79502 7.355 8.02002 7.205 8.32002 7.13C8.54502 7.055 8.84502 6.98 9.44502 6.905C10.12 6.905 10.345 6.905 11.995 6.905ZM11.995 5.78C10.27 5.78 10.12 5.78 9.44502 5.78C8.77002 5.78 8.32002 5.93 7.94502 6.08C7.57002 6.23 7.19502 6.455 6.82002 6.83C6.44502 7.205 6.29502 7.505 6.07002 7.955C5.92002 8.33 5.84502 8.78 5.77002 9.455C5.77002 10.13 5.77002 10.355 5.77002 12.005C5.77002 13.73 5.77002 13.88 5.77002 14.555C5.77002 15.23 5.92002 15.68 6.07002 16.055C6.22002 16.43 6.44502 16.805 6.82002 17.18C7.19502 17.555 7.49502 17.705 7.94502 17.93C8.32002 18.08 8.77002 18.155 9.44502 18.23C10.12 18.23 10.345 18.23 11.995 18.23C13.645 18.23 13.87 18.23 14.545 18.23C15.22 18.23 15.67 18.08 16.045 17.93C16.42 17.78 16.795 17.555 17.17 17.18C17.545 16.805 17.695 16.505 17.92 16.055C18.07 15.68 18.145 15.23 18.22 14.555C18.22 13.88 18.22 13.655 18.22 12.005C18.22 10.355 18.22 10.13 18.22 9.455C18.22 8.78 18.07 8.33 17.92 7.955C17.77 7.58 17.545 7.205 17.17 6.83C16.795 6.455 16.495 6.305 16.045 6.08C15.67 5.93 15.22 5.855 14.545 5.78C13.87 5.78 13.72 5.78 11.995 5.78Z" fill="white"/>
<path d="M11.995 8.78C10.195 8.78 8.77002 10.205 8.77002 12.005C8.77002 13.805 10.195 15.23 11.995 15.23C13.795 15.23 15.22 13.805 15.22 12.005C15.22 10.205 13.795 8.78 11.995 8.78ZM11.995 14.105C10.87 14.105 9.89502 13.205 9.89502 12.005C9.89502 10.88 10.795 9.905 11.995 9.905C13.12 9.905 14.095 10.805 14.095 12.005C14.095 13.13 13.12 14.105 11.995 14.105Z" fill="white"/>
<path d="M15.295 9.455C15.7092 9.455 16.045 9.11921 16.045 8.705C16.045 8.29079 15.7092 7.955 15.295 7.955C14.8808 7.955 14.545 8.29079 14.545 8.705C14.545 9.11921 14.8808 9.455 15.295 9.455Z" fill="white"/>
</svg>
