<svg width="157" height="16" viewBox="0 0 157 16" fill="none" xmlns="http://www.w3.org/2000/svg">
<path d="M21.6232 2.86694V0.0118847H4.05722C1.35995 0.0118847 0 1.40513 0 3.66629V12.3456C0 14.6068 1.35995 16 4.05722 16H21.6232V13.145H3.0599V2.86694H21.6232ZM33.3414 6.54418V0.0118847H30.3496V16H33.3414V9.35348H49.3209V16H52.3128V0.0118847H49.3209V6.54418H33.3414ZM81.3705 0.0118847V13.145H65.6178V0.0118847H62.6259V12.3456C62.6259 14.6068 63.9857 16 66.6831 16H80.3052C83.0026 16 84.3623 14.6068 84.3623 12.3456V0.0118847H81.3705ZM113.079 16C116.026 16 117.386 14.7666 117.386 12.6425V10.7696C117.386 10.1757 117.182 9.90172 116.751 9.53619L114.847 7.89175L116.751 6.24723C117.182 5.88178 117.386 5.60767 117.386 5.01387V3.36943C117.386 1.24523 116.026 0.0118847 113.079 0.0118847H94.6744V16H113.079ZM97.6663 2.72987H114.326V6.61266H97.6663V2.72987ZM114.326 13.282H97.6663V9.285H114.326V13.282ZM145.265 16C148.211 16 149.571 14.7666 149.571 12.6425V10.7696C149.571 10.1757 149.367 9.90172 148.936 9.53619L147.032 7.89175L148.936 6.24723C149.367 5.88178 149.571 5.60767 149.571 5.01387V3.36943C149.571 1.24523 148.211 0.0118847 145.265 0.0118847H126.86V16H145.265ZM129.852 2.72987H146.511V6.61266H129.852V2.72987ZM146.511 13.282H129.852V9.285H146.511V13.282Z" fill="white"/>
<path d="M155.044 2.04756C155.135 2.04171 155.215 2.02516 155.285 1.99774C155.355 1.97041 155.411 1.92655 155.453 1.86587C155.496 1.80545 155.517 1.72235 155.517 1.61696C155.517 1.52716 155.501 1.45495 155.468 1.40011C155.435 1.34562 155.391 1.30167 155.334 1.26832C155.278 1.23521 155.215 1.21264 155.145 1.20093C155.076 1.18922 155.002 1.18346 154.924 1.18346H154.36V2.05638H154.768C154.86 2.05638 154.953 2.05342 155.044 2.04756ZM154.052 3.43902V0.91978H155.012C155.294 0.91978 155.501 0.979351 155.631 1.09849C155.761 1.21766 155.826 1.39053 155.826 1.61696C155.826 1.72634 155.809 1.82198 155.776 1.90406C155.743 1.98603 155.698 2.05544 155.64 2.11206C155.581 2.16866 155.514 2.21356 155.439 2.24674C155.363 2.28 155.283 2.30435 155.197 2.31989L155.942 3.43902H155.581L154.878 2.31989H154.36V3.43902H154.052ZM154.107 0.456914C153.885 0.554593 153.692 0.687424 153.529 0.855363C153.366 1.02324 153.239 1.22055 153.148 1.44697C153.057 1.67355 153.012 1.91779 153.012 2.17943C153.012 2.44116 153.057 2.68525 153.148 2.91174C153.239 3.13834 153.366 3.33556 153.529 3.50352C153.692 3.67146 153.885 3.80421 154.107 3.90188C154.33 3.99956 154.574 4.04836 154.837 4.04836C155.097 4.04836 155.338 3.99956 155.561 3.90188C155.784 3.80421 155.977 3.67146 156.139 3.50352C156.302 3.33556 156.43 3.13834 156.523 2.91174C156.616 2.68525 156.663 2.44116 156.663 2.17943C156.663 1.91779 156.616 1.67355 156.523 1.44697C156.43 1.22055 156.302 1.02324 156.139 0.855363C155.977 0.687424 155.784 0.554593 155.561 0.456914C155.338 0.359323 155.097 0.310528 154.837 0.310528C154.574 0.310528 154.33 0.359323 154.107 0.456914ZM155.692 0.167007C155.955 0.278286 156.184 0.432561 156.378 0.629786C156.572 0.827098 156.724 1.05854 156.835 1.32399C156.945 1.58971 157 1.87469 157 2.17943C157 2.488 156.945 2.77409 156.835 3.0376C156.724 3.30128 156.572 3.53077 156.378 3.72613C156.184 3.92148 155.955 4.07467 155.692 4.18593C155.428 4.29727 155.143 4.35284 154.837 4.35284C154.531 4.35284 154.246 4.29727 153.983 4.18593C153.719 4.07467 153.49 3.92148 153.297 3.72613C153.103 3.53077 152.951 3.30128 152.84 3.0376C152.73 2.77409 152.674 2.488 152.674 2.17943C152.674 1.87469 152.73 1.58971 152.84 1.32399C152.951 1.05854 153.103 0.827098 153.297 0.629786C153.49 0.432561 153.719 0.278286 153.983 0.167007C154.246 0.0556636 154.531 3.8147e-06 154.837 3.8147e-06C155.143 3.8147e-06 155.428 0.0556636 155.692 0.167007Z" fill="white"/>
</svg>
