<svg width="24" height="24" viewBox="0 0 24 24" fill="none" xmlns="http://www.w3.org/2000/svg">
<rect width="24" height="24" fill="#4B4E53"/>
<path d="M18 8.255C17.55 8.48 17.1 8.555 16.575 8.63C17.1 8.33 17.475 7.88 17.625 7.28C17.175 7.58 16.65 7.73 16.05 7.88C15.6 7.43 14.925 7.13 14.25 7.13C12.675 7.13 11.475 8.63 11.85 10.13C9.825 10.055 8.025 9.08 6.75 7.58C6.075 8.705 6.45 10.13 7.5 10.88C7.125 10.88 6.75 10.73 6.375 10.58C6.375 11.705 7.2 12.755 8.325 13.055C7.95 13.13 7.575 13.205 7.2 13.13C7.5 14.105 8.4 14.855 9.525 14.855C8.625 15.53 7.275 15.905 6 15.755C7.125 16.43 8.4 16.88 9.75 16.88C14.325 16.88 16.875 13.055 16.725 9.53C17.25 9.23 17.7 8.78 18 8.255Z" fill="white"/>
</svg>
